<svg width="24" height="24" viewBox="0 0 24 24" fill="none" xmlns="http://www.w3.org/2000/svg">
<g clip-path="url(#clip0_542_376)">
<path d="M23.395 16.2448C17.585 6.18476 14.895 1.10476 14.345 1.65476C13.8248 1.33824 13.2458 1.13058 12.643 1.04436C12.0403 0.958144 11.4263 0.995154 10.8382 1.15315C10.2502 1.31115 9.70028 1.58685 9.22188 1.96356C8.74348 2.34028 8.34652 2.81016 8.05502 3.34476C7.29502 4.64476 10.785 -1.39524 0.645016 16.1748C0.220962 16.876 -0.00216713 17.6803 1.58657e-05 18.4998C1.58657e-05 23.0948 6.11002 24.7098 8.39502 20.7498C8.75002 20.1298 7.11502 22.9698 12 14.4998L15.6 20.7498C16.1968 21.7834 17.1797 22.5377 18.3326 22.8467C19.4854 23.1557 20.7138 22.994 21.7475 22.3973C22.7812 21.8005 23.5355 20.8176 23.8445 19.6647C24.1534 18.5118 23.9918 17.2834 23.395 16.2498V16.2448ZM4.50002 21.9998C3.88531 22.0004 3.28126 21.8392 2.74864 21.5323C2.21603 21.2254 1.77364 20.7836 1.46599 20.2515C1.15834 19.7193 0.996275 19.1154 0.996104 18.5007C0.995932 17.886 1.15766 17.2821 1.46502 16.7498C1.4779 16.7288 1.48958 16.7071 1.50002 16.6848C3.60502 13.2098 9.07502 15.5748 7.82002 19.5548C7.59668 20.2613 7.15489 20.8787 6.55826 21.318C5.96164 21.7574 5.24096 21.9961 4.50002 21.9998ZM8.94502 17.7998C8.84062 17.1371 8.58937 16.5061 8.20966 15.953C7.82995 15.4 7.33138 14.9388 6.75044 14.6033C6.16951 14.2678 5.5209 14.0664 4.8521 14.0139C4.18329 13.9613 3.5112 14.059 2.88502 14.2998L7.55502 6.20976C7.74002 7.37976 8.09002 7.73976 11.42 13.5148L8.94502 17.7998ZM19.5 21.9998C18.8858 21.9996 18.2825 21.8378 17.7506 21.5306C17.2188 21.2234 16.7771 20.7817 16.47 20.2498C8.19001 5.90976 8.50002 6.75976 8.50002 5.49976C8.5004 4.89093 8.65959 4.29272 8.96187 3.76422C9.26416 3.23573 9.69907 2.79522 10.2237 2.48622C10.7483 2.17722 11.3444 2.01041 11.9532 2.00226C12.562 1.99411 13.1623 2.14491 13.695 2.43976C14.755 2.90976 14.595 2.99976 22.5 16.6848C22.8223 17.2161 22.9972 17.8236 23.007 18.445C23.0167 19.0663 22.8608 19.679 22.5554 20.2202C22.2499 20.7613 21.8059 21.2114 21.2689 21.5242C20.732 21.8369 20.1214 22.0011 19.5 21.9998Z" fill="#606060"/>
</g>
<defs>
<clipPath id="clip0_542_376">
<rect width="24" height="24" fill="white"/>
</clipPath>
</defs>
</svg>
