<svg width="22" height="22" viewBox="0 0 22 22" fill="none" xmlns="http://www.w3.org/2000/svg">
<path d="M21.5 5.75C21.5 2.855 19.145 0.5 16.25 0.5C14.1313 0.5 12.3065 1.76375 11.4777 3.575L9.8105 2.8175C9.71297 2.77325 9.6071 2.75036 9.5 2.75036C9.3929 2.75036 9.28703 2.77325 9.1895 2.8175L0.9395 6.5675C0.808417 6.62702 0.697255 6.72304 0.619312 6.84407C0.54137 6.96511 0.499947 7.10604 0.5 7.25V17C0.5 17.2948 0.67175 17.561 0.9395 17.6825L9.1895 21.4325C9.28703 21.4768 9.3929 21.4996 9.5 21.4996C9.6071 21.4996 9.71297 21.4768 9.8105 21.4325L18.0605 17.6825C18.1916 17.623 18.3027 17.527 18.3807 17.4059C18.4586 17.2849 18.5001 17.144 18.5 17V10.4862C20.27 9.641 21.5 7.83875 21.5 5.75ZM9.5 4.32425L11.0555 5.03075C11.0205 5.26894 11.002 5.50926 11 5.75C11 6.97025 11.4222 8.0915 12.1227 8.984L9.5 10.1765L3.06275 7.25L9.5 4.32425ZM2 8.41475L8.75 11.4823V19.5853L2 16.5177V8.41475ZM17 16.517L10.25 19.5845V11.4838L13.3055 10.0948C14.1736 10.6859 15.1998 11.0014 16.25 11C16.505 11 16.754 10.9753 17 10.94V16.517ZM16.25 9.5C14.1823 9.5 12.5 7.81775 12.5 5.75C12.5 3.68225 14.1823 2 16.25 2C18.3177 2 20 3.68225 20 5.75C20 7.81775 18.3177 9.5 16.25 9.5Z" fill="#2C3C5F"/>
<path d="M18.5 5H17V3.5C17 3.30109 16.921 3.11032 16.7803 2.96967C16.6397 2.82902 16.4489 2.75 16.25 2.75C16.0511 2.75 15.8603 2.82902 15.7197 2.96967C15.579 3.11032 15.5 3.30109 15.5 3.5V5H14C13.8011 5 13.6103 5.07902 13.4697 5.21967C13.329 5.36032 13.25 5.55109 13.25 5.75C13.25 5.94891 13.329 6.13968 13.4697 6.28033C13.6103 6.42098 13.8011 6.5 14 6.5H15.5V8C15.5 8.19891 15.579 8.38968 15.7197 8.53033C15.8603 8.67098 16.0511 8.75 16.25 8.75C16.4489 8.75 16.6397 8.67098 16.7803 8.53033C16.921 8.38968 17 8.19891 17 8V6.5H18.5C18.6989 6.5 18.8897 6.42098 19.0303 6.28033C19.171 6.13968 19.25 5.94891 19.25 5.75C19.25 5.55109 19.171 5.36032 19.0303 5.21967C18.8897 5.07902 18.6989 5 18.5 5Z" fill="#2C3C60"/>
</svg>
