<svg width="20" height="20" viewBox="0 0 20 20" fill="none" xmlns="http://www.w3.org/2000/svg">
<path d="M10.0014 0.250488C7.41626 0.253489 4.93785 1.28177 3.10987 3.10975C1.28189 4.93772 0.253611 7.41613 0.25061 10.0013C0.253611 12.5864 1.28189 15.0648 3.10987 16.8928C4.93785 18.7208 7.41626 19.7491 10.0014 19.7521C12.5866 19.7491 15.065 18.7208 16.8929 16.8928C18.7209 15.0648 19.7492 12.5864 19.7522 10.0013C19.7492 7.41613 18.7209 4.93772 16.8929 3.10975C15.065 1.28177 12.5866 0.253489 10.0014 0.250488ZM10.7526 1.78397C12.8029 1.96821 14.7098 2.91375 16.0976 4.43424C17.4853 5.95473 18.2532 7.93988 18.2499 9.99845C18.2532 12.057 17.4853 14.0422 16.0976 15.5627C14.7098 17.0832 12.8029 18.0287 10.7526 18.2129V1.78397Z" fill="#606060"/>
</svg>
