<svg width="22" height="22" viewBox="0 0 22 22" fill="none" xmlns="http://www.w3.org/2000/svg">
<path d="M14.6239 8.79029C15.0144 8.39977 15.0144 7.7666 14.6239 7.37608C14.2334 6.98555 13.6002 6.98555 13.2097 7.37608L14.6239 8.79029ZM7.37608 13.2097C6.98555 13.6002 6.98555 14.2334 7.37608 14.6239C7.7666 15.0144 8.39977 15.0144 8.79029 14.6239L7.37608 13.2097ZM13.2097 14.6239C13.6002 15.0144 14.2334 15.0144 14.6239 14.6239C15.0144 14.2334 15.0144 13.6002 14.6239 13.2097L13.2097 14.6239ZM8.79029 7.37608C8.39977 6.98555 7.7666 6.98555 7.37608 7.37608C6.98555 7.7666 6.98555 8.39977 7.37608 8.79029L8.79029 7.37608ZM18.25 11C18.25 15.0041 15.0041 18.25 11 18.25V20.25C16.1086 20.25 20.25 16.1086 20.25 11H18.25ZM11 18.25C6.99594 18.25 3.75 15.0041 3.75 11H1.75C1.75 16.1086 5.89137 20.25 11 20.25V18.25ZM3.75 11C3.75 6.99594 6.99594 3.75 11 3.75V1.75C5.89137 1.75 1.75 5.89137 1.75 11H3.75ZM11 3.75C15.0041 3.75 18.25 6.99594 18.25 11H20.25C20.25 5.89137 16.1086 1.75 11 1.75V3.75ZM13.2097 7.37608L10.2929 10.2929L11.7071 11.7071L14.6239 8.79029L13.2097 7.37608ZM10.2929 10.2929L7.37608 13.2097L8.79029 14.6239L11.7071 11.7071L10.2929 10.2929ZM14.6239 13.2097L11.7071 10.2929L10.2929 11.7071L13.2097 14.6239L14.6239 13.2097ZM11.7071 10.2929L8.79029 7.37608L7.37608 8.79029L10.2929 11.7071L11.7071 10.2929Z" fill="#D80700"/>
</svg>
