<svg width="20" height="20" viewBox="0 0 20 20" fill="none" xmlns="http://www.w3.org/2000/svg">
<path d="M9.999 2.22225C9.82241 2.22501 9.65414 2.29772 9.53111 2.42441C9.40807 2.55111 9.34033 2.72144 9.34275 2.89803V3.23136H5.67608C5.58777 3.23017 5.5001 3.24652 5.41817 3.27949C5.33623 3.31245 5.26167 3.36137 5.19879 3.42339C5.13592 3.48542 5.086 3.55932 5.05192 3.6408C5.01785 3.72228 5.0003 3.80971 5.0003 3.89803H4.00941C3.92107 3.89678 3.83336 3.9131 3.75139 3.94604C3.66941 3.97899 3.59479 4.02789 3.53188 4.08992C3.46897 4.15195 3.41901 4.22587 3.38491 4.30737C3.35081 4.38888 3.33325 4.47635 3.33325 4.5647C3.33325 4.65305 3.35081 4.74052 3.38491 4.82202C3.41901 4.90353 3.46897 4.97744 3.53188 5.03947C3.59479 5.1015 3.66941 5.15041 3.75139 5.18335C3.83336 5.21629 3.92107 5.23261 4.00941 5.23136H16.0094C16.0978 5.23261 16.1855 5.21629 16.2674 5.18335C16.3494 5.15041 16.424 5.1015 16.4869 5.03947C16.5499 4.97744 16.5998 4.90353 16.6339 4.82202C16.668 4.74052 16.6856 4.65305 16.6856 4.5647C16.6856 4.47635 16.668 4.38888 16.6339 4.30737C16.5998 4.22587 16.5499 4.15195 16.4869 4.08992C16.424 4.02789 16.3494 3.97899 16.2674 3.94604C16.1855 3.9131 16.0978 3.89678 16.0094 3.89803H15.0185C15.0185 3.80971 15.001 3.72228 14.9669 3.6408C14.9328 3.55932 14.8829 3.48542 14.82 3.42339C14.7572 3.36137 14.6826 3.31245 14.6007 3.27949C14.5187 3.24652 14.4311 3.23017 14.3427 3.23136H10.6761V2.89803C10.6773 2.80884 10.6606 2.72031 10.627 2.63768C10.5934 2.55505 10.5435 2.48001 10.4804 2.417C10.4173 2.35398 10.3421 2.30428 10.2594 2.27083C10.1768 2.23737 10.0882 2.22086 9.999 2.22225ZM4.00941 6.5647L5.20473 16.7209C5.28339 17.3923 5.85164 17.898 6.52764 17.898H13.4912C14.1672 17.898 14.7348 17.3923 14.8141 16.7209L16.0094 6.5647H4.00941Z" fill="#2C3C60"/>
</svg>
