<svg width="15" height="15" viewBox="0 0 15 15" fill="none" xmlns="http://www.w3.org/2000/svg">
<g filter="url(#filter0_d_542_581)">
<path fill-rule="evenodd" clip-rule="evenodd" d="M4.84994 3.8836C4.84994 3.20426 4.29039 2.6512 3.60143 2.6512C2.91321 2.6512 2.35292 3.20426 2.35292 3.8836C2.35292 4.56295 2.91321 5.11601 3.60143 5.11601C4.29039 5.11601 4.84994 4.56295 4.84994 3.8836ZM5.95286 3.8836C5.95286 5.16318 4.89847 6.2047 3.60143 6.2047C2.30513 6.2047 1.25 5.16318 1.25 3.8836C1.25 2.60402 2.30513 1.5625 3.60143 1.5625C4.89847 1.5625 5.95286 2.60402 5.95286 3.8836ZM13.75 3.88375C13.75 3.58327 13.5029 3.3394 13.1985 3.3394H8.67656C8.37215 3.3394 8.1251 3.58327 8.1251 3.88375C8.1251 4.18423 8.37215 4.4281 8.67656 4.4281H13.1985C13.5029 4.4281 13.75 4.18423 13.75 3.88375ZM10.1498 11.1164C10.1498 11.7957 10.7094 12.3488 11.3983 12.3488C12.0873 12.3488 12.6469 11.7957 12.6469 11.1164C12.6469 10.4363 12.0873 9.88399 11.3983 9.88399C10.7094 9.88399 10.1498 10.4363 10.1498 11.1164ZM9.04692 11.1164C9.04692 9.83609 10.1013 8.7953 11.3983 8.7953C12.6954 8.7953 13.7498 9.83609 13.7498 11.1164C13.7498 12.396 12.6954 13.4375 11.3983 13.4375C10.1013 13.4375 9.04692 12.396 9.04692 11.1164ZM1.80198 10.5718H6.32322C6.62763 10.5718 6.87468 10.8157 6.87468 11.1162C6.87468 11.4167 6.62763 11.6605 6.32322 11.6605H1.80198C1.49757 11.6605 1.25051 11.4167 1.25051 11.1162C1.25051 10.8157 1.49757 10.5718 1.80198 10.5718Z" fill="#2C3C60"/>
</g>
<defs>
<filter id="filter0_d_542_581" x="0" y="0" width="15" height="15" filterUnits="userSpaceOnUse" color-interpolation-filters="sRGB">
<feFlood flood-opacity="0" result="BackgroundImageFix"/>
<feColorMatrix in="SourceAlpha" type="matrix" values="0 0 0 0 0 0 0 0 0 0 0 0 0 0 0 0 0 0 127 0" result="hardAlpha"/>
<feOffset/>
<feComposite in2="hardAlpha" operator="out"/>
<feColorMatrix type="matrix" values="0 0 0 0 0 0 0 0 0 0 0 0 0 0 0 0 0 0 0.25 0"/>
<feBlend mode="normal" in2="BackgroundImageFix" result="effect1_dropShadow_542_581"/>
<feBlend mode="normal" in="SourceGraphic" in2="effect1_dropShadow_542_581" result="shape"/>
</filter>
</defs>
</svg>
